<?xml version="1.0" encoding="UTF-8"?>
<svg width="200px" height="200px" viewBox="0 0 200 200" version="1.1" xmlns="http://www.w3.org/2000/svg" xmlns:xlink="http://www.w3.org/1999/xlink">
    <!-- Generator: Sketch 53.2 (72643) - https://sketchapp.com -->
    <title>Sertificate / Clutch / Color</title>
    <desc>Created with Sketch.</desc>
    <g id="Sertificate-/-Clutch-/-Color" stroke="none" stroke-width="1" fill="none" fill-rule="evenodd">
        <g id="Group" transform="translate(19.000000, 8.000000)">
            <path d="M161.758242,31.7080126 L132.959144,60.4597074 C123.519254,48.3040708 108.750679,40.48 92.1516818,40.48 C63.6510595,40.48 40.54674,63.5462897 40.54674,92 C40.54674,120.45371 63.6510595,143.52 92.1516818,143.52 C108.750679,143.52 123.519254,135.695929 132.959144,123.540293 L161.758242,152.291987 C144.86252,171.71704 119.943885,184 92.1516818,184 C41.2577133,184 0,142.810197 0,92 C0,41.189803 41.2577133,0 92.1516818,0 C119.943885,0 144.86252,12.2829602 161.758242,31.7080126 Z" id="Combined-Shape" fill="#17313B"></path>
            <circle id="Oval" fill="#FF3D2E" cx="92" cy="92" r="30.3296703"></circle>
        </g>
    </g>
</svg>